# xmcd
#
# Track frame offsets: 
#        150
#        23577
#        42112
#        69172
#        93855
#        118817
#        143660
#        161959
#        187980
#        205827
#
# Disc length: 3110 seconds
#
# Revision: 0
# Processed by: cddbd v1.5.2PL0 Copyright (c) Steve Scherf et al.
# Submitted via: ExactAudioCopy v1.0b3
#
DISCID=7d0c240a
DTITLE=Phi Nhung, Phuong Lam - Tha Trang Tha Den
DYEAR=1996
DGENRE=
TTITLE0=LK Hoi am
TTITLE1=Phi Nhung - Giac ngu dau noi
TTITLE2=Phuong Lam - Chuyen tinh rau muong bien
TTITLE3=Phi Nhung - Tha trang tha den (Mat nhau roi)
TTITLE4=Phuong Lam - Tinh tuoi o mai
TTITLE5=Phi Nhung - Chuyen ngay xua
TTITLE6=Phuong Lam - Dong song ho hen
TTITLE7=Phi Nhung - Chuyen xe lam chieu
TTITLE8=Phuong Lam - Chuyen hop tan
TTITLE9=Phi Nhung - Yeu lam
EXTD=
EXTT0=
EXTT1=
EXTT2=
EXTT3=
EXTT4=
EXTT5=
EXTT6=
EXTT7=
EXTT8=
EXTT9=
PLAYORDER=
